<svg width="56" height="39" viewBox="0 0 56 39" fill="none" xmlns="http://www.w3.org/2000/svg">
<circle cx="19" cy="19" r="19" transform="matrix(-1 0 0 1 55.5 0.889648)" fill="#38B6FF" fill-opacity="0.16"/>
<path d="M31.2951 19.3795L24.2498 12.1426C23.9967 11.8391 23.552 11.8037 23.2564 12.0637C22.9609 12.3237 22.9265 12.7805 23.1796 13.0841C23.2032 13.1124 23.2289 13.1388 23.2564 13.163L29.097 19.1696H1.20451C0.815444 19.1696 0.5 19.4936 0.5 19.8933C0.5 20.293 0.815444 20.617 1.20451 20.617H29.097L23.2564 26.6163C22.9609 26.8763 22.9265 27.3331 23.1796 27.6367C23.4328 27.9402 23.8775 27.9756 24.173 27.7156C24.2005 27.6913 24.2263 27.665 24.2498 27.6367L31.2952 20.3998C31.5683 20.1176 31.5683 19.6618 31.2951 19.3795Z" fill="#232425"/>
<path d="M31.2951 19.3795L24.2498 12.1426C23.9967 11.8391 23.552 11.8037 23.2564 12.0637C22.9609 12.3237 22.9265 12.7805 23.1796 13.0841C23.2032 13.1124 23.2289 13.1388 23.2564 13.163L29.097 19.1696H1.20451C0.815444 19.1696 0.5 19.4936 0.5 19.8933C0.5 20.293 0.815444 20.617 1.20451 20.617H29.097L23.2564 26.6163C22.9609 26.8763 22.9265 27.3331 23.1796 27.6367C23.4328 27.9402 23.8775 27.9756 24.173 27.7156C24.2005 27.6913 24.2263 27.665 24.2498 27.6367L31.2952 20.3998C31.5683 20.1176 31.5683 19.6618 31.2951 19.3795Z" fill="#232425"/>
<path d="M31.2951 19.3795L24.2498 12.1426C23.9967 11.8391 23.552 11.8037 23.2564 12.0637C22.9609 12.3237 22.9265 12.7805 23.1796 13.0841C23.2032 13.1124 23.2289 13.1388 23.2564 13.163L29.097 19.1696H1.20451C0.815444 19.1696 0.5 19.4936 0.5 19.8933C0.5 20.293 0.815444 20.617 1.20451 20.617H29.097L23.2564 26.6163C22.9609 26.8763 22.9265 27.3331 23.1796 27.6367C23.4328 27.9402 23.8775 27.9756 24.173 27.7156C24.2005 27.6913 24.2263 27.665 24.2498 27.6367L31.2952 20.3998C31.5683 20.1176 31.5683 19.6618 31.2951 19.3795Z" fill="#232425"/>
</svg>
